<mxfile host="Electron" modified="2023-10-04T00:32:13.766Z" agent="Mozilla/5.0 (Windows NT 10.0; Win64; x64) AppleWebKit/537.36 (KHTML, like Gecko) draw.io/21.7.5 Chrome/114.0.5735.289 Electron/25.8.1 Safari/537.36" etag="dmqbk6qB0gdIS9Kzteci" version="21.7.5" type="device" pages="2">
  <diagram name="PÃ¡gina-1" id="5QtME5M5DxeWVd1w2NvC">
    <mxGraphModel dx="898" dy="551" grid="1" gridSize="10" guides="1" tooltips="1" connect="1" arrows="1" fold="1" page="1" pageScale="1" pageWidth="827" pageHeight="1169" math="0" shadow="0">
      <root>
        <mxCell id="0" />
        <mxCell id="1" parent="0" />
        <mxCell id="GWcpfoeMARC62F03ZhTd-8" style="rounded=0;orthogonalLoop=1;jettySize=auto;html=1;exitX=0.5;exitY=0;exitDx=0;exitDy=0;entryX=0.5;entryY=1;entryDx=0;entryDy=0;" parent="1" source="GWcpfoeMARC62F03ZhTd-1" target="GWcpfoeMARC62F03ZhTd-2" edge="1">
          <mxGeometry relative="1" as="geometry" />
        </mxCell>
        <mxCell id="GWcpfoeMARC62F03ZhTd-15" style="rounded=0;orthogonalLoop=1;jettySize=auto;html=1;exitX=0.5;exitY=1;exitDx=0;exitDy=0;entryX=0.5;entryY=0;entryDx=0;entryDy=0;" parent="1" source="GWcpfoeMARC62F03ZhTd-1" target="GWcpfoeMARC62F03ZhTd-14" edge="1">
          <mxGeometry relative="1" as="geometry" />
        </mxCell>
        <mxCell id="GWcpfoeMARC62F03ZhTd-19" style="rounded=0;orthogonalLoop=1;jettySize=auto;html=1;exitX=1;exitY=1;exitDx=0;exitDy=0;entryX=0;entryY=0;entryDx=0;entryDy=0;" parent="1" source="GWcpfoeMARC62F03ZhTd-1" target="GWcpfoeMARC62F03ZhTd-18" edge="1">
          <mxGeometry relative="1" as="geometry" />
        </mxCell>
        <mxCell id="GWcpfoeMARC62F03ZhTd-22" style="rounded=0;orthogonalLoop=1;jettySize=auto;html=1;exitX=1;exitY=0;exitDx=0;exitDy=0;entryX=0;entryY=0.5;entryDx=0;entryDy=0;" parent="1" source="GWcpfoeMARC62F03ZhTd-1" target="TY12RP6krnIhE76KhcJ3-1" edge="1">
          <mxGeometry relative="1" as="geometry">
            <mxPoint x="324" y="151" as="targetPoint" />
          </mxGeometry>
        </mxCell>
        <mxCell id="GWcpfoeMARC62F03ZhTd-1" value="Peliculas" style="rounded=1;arcSize=10;whiteSpace=wrap;html=1;align=center;fillColor=#e3c800;fontColor=#000000;strokeColor=#84840b;gradientColor=#595900;fontStyle=1" parent="1" vertex="1">
          <mxGeometry x="174" y="126" width="100" height="40" as="geometry" />
        </mxCell>
        <mxCell id="GWcpfoeMARC62F03ZhTd-2" value="Id" style="ellipse;whiteSpace=wrap;html=1;align=center;fontStyle=5;fillColor=#a0522d;fontColor=#000000;strokeColor=#6D1F00;gradientColor=#D99857;labelBorderColor=none;" parent="1" vertex="1">
          <mxGeometry x="174" y="30" width="100" height="40" as="geometry" />
        </mxCell>
        <mxCell id="GWcpfoeMARC62F03ZhTd-10" style="rounded=0;orthogonalLoop=1;jettySize=auto;html=1;exitX=0;exitY=0;exitDx=0;exitDy=0;entryX=1;entryY=0.5;entryDx=0;entryDy=0;" parent="1" source="GWcpfoeMARC62F03ZhTd-1" target="GWcpfoeMARC62F03ZhTd-9" edge="1">
          <mxGeometry relative="1" as="geometry" />
        </mxCell>
        <mxCell id="GWcpfoeMARC62F03ZhTd-9" value="Titulo" style="ellipse;whiteSpace=wrap;html=1;align=center;fillColor=#FFAD0B;fontColor=#000000;strokeColor=#7A4900;fontStyle=1;gradientColor=#623104;" parent="1" vertex="1">
          <mxGeometry x="30" y="80" width="100" height="40" as="geometry" />
        </mxCell>
        <mxCell id="GWcpfoeMARC62F03ZhTd-12" style="rounded=0;orthogonalLoop=1;jettySize=auto;html=1;exitX=0;exitY=1;exitDx=0;exitDy=0;entryX=1;entryY=0;entryDx=0;entryDy=0;" parent="1" source="GWcpfoeMARC62F03ZhTd-1" target="GWcpfoeMARC62F03ZhTd-11" edge="1">
          <mxGeometry relative="1" as="geometry" />
        </mxCell>
        <mxCell id="GWcpfoeMARC62F03ZhTd-11" value="Poster" style="ellipse;whiteSpace=wrap;html=1;align=center;fillColor=#FFAD0B;fontColor=#000000;strokeColor=#7A4900;fontStyle=1;gradientColor=#623104;" parent="1" vertex="1">
          <mxGeometry x="44" y="182" width="100" height="40" as="geometry" />
        </mxCell>
        <mxCell id="GWcpfoeMARC62F03ZhTd-14" value="Resumen" style="ellipse;whiteSpace=wrap;html=1;align=center;fillColor=#FFAD0B;fontColor=#000000;strokeColor=#7A4900;fontStyle=1;gradientColor=#623104;" parent="1" vertex="1">
          <mxGeometry x="174" y="230" width="100" height="40" as="geometry" />
        </mxCell>
        <mxCell id="GWcpfoeMARC62F03ZhTd-18" value="idCategoria" style="ellipse;whiteSpace=wrap;html=1;align=center;fillColor=#FFAD0B;fontColor=#000000;strokeColor=#7A4900;fontStyle=1;gradientColor=#623104;" parent="1" vertex="1">
          <mxGeometry x="300" y="182" width="100" height="40" as="geometry" />
        </mxCell>
        <mxCell id="GWcpfoeMARC62F03ZhTd-30" style="edgeStyle=none;rounded=0;orthogonalLoop=1;jettySize=auto;html=1;exitX=1;exitY=0.5;exitDx=0;exitDy=0;entryX=0.424;entryY=0.009;entryDx=0;entryDy=0;entryPerimeter=0;" parent="1" source="GWcpfoeMARC62F03ZhTd-25" target="GWcpfoeMARC62F03ZhTd-28" edge="1">
          <mxGeometry relative="1" as="geometry">
            <mxPoint x="756" y="181" as="targetPoint" />
          </mxGeometry>
        </mxCell>
        <mxCell id="GWcpfoeMARC62F03ZhTd-31" style="edgeStyle=none;rounded=0;orthogonalLoop=1;jettySize=auto;html=1;exitX=0;exitY=0.5;exitDx=0;exitDy=0;entryX=0.676;entryY=0.032;entryDx=0;entryDy=0;entryPerimeter=0;" parent="1" source="GWcpfoeMARC62F03ZhTd-25" target="GWcpfoeMARC62F03ZhTd-27" edge="1">
          <mxGeometry relative="1" as="geometry">
            <mxPoint x="614" y="106" as="targetPoint" />
          </mxGeometry>
        </mxCell>
        <mxCell id="GWcpfoeMARC62F03ZhTd-25" value="Categorias" style="rounded=1;arcSize=10;whiteSpace=wrap;html=1;align=center;fillColor=#e3c800;fontColor=#000000;strokeColor=#84840b;gradientColor=#595900;fontStyle=1" parent="1" vertex="1">
          <mxGeometry x="580" y="131" width="100" height="35" as="geometry" />
        </mxCell>
        <mxCell id="GWcpfoeMARC62F03ZhTd-27" value="Id" style="ellipse;whiteSpace=wrap;html=1;align=center;fontStyle=5;fillColor=#a0522d;fontColor=#000000;strokeColor=#6D1F00;gradientColor=#D99857;labelBorderColor=none;" parent="1" vertex="1">
          <mxGeometry x="450" y="182" width="100" height="40" as="geometry" />
        </mxCell>
        <mxCell id="GWcpfoeMARC62F03ZhTd-28" value="Detalle" style="ellipse;whiteSpace=wrap;html=1;align=center;fillColor=#FFAD0B;fontColor=#000000;strokeColor=#7A4900;fontStyle=1;gradientColor=#623104;" parent="1" vertex="1">
          <mxGeometry x="706" y="182" width="100" height="40" as="geometry" />
        </mxCell>
        <mxCell id="GWcpfoeMARC62F03ZhTd-35" style="edgeStyle=none;rounded=0;orthogonalLoop=1;jettySize=auto;html=1;exitX=1;exitY=0.5;exitDx=0;exitDy=0;entryX=0.5;entryY=0;entryDx=0;entryDy=0;" parent="1" source="GWcpfoeMARC62F03ZhTd-38" target="GWcpfoeMARC62F03ZhTd-40" edge="1">
          <mxGeometry relative="1" as="geometry" />
        </mxCell>
        <mxCell id="GWcpfoeMARC62F03ZhTd-42" style="edgeStyle=none;rounded=0;orthogonalLoop=1;jettySize=auto;html=1;exitX=0;exitY=0.5;exitDx=0;exitDy=0;entryX=0.5;entryY=0;entryDx=0;entryDy=0;" parent="1" source="GWcpfoeMARC62F03ZhTd-38" target="GWcpfoeMARC62F03ZhTd-39" edge="1">
          <mxGeometry relative="1" as="geometry">
            <mxPoint x="123" y="450" as="targetPoint" />
          </mxGeometry>
        </mxCell>
        <mxCell id="GWcpfoeMARC62F03ZhTd-38" value="Generos" style="rounded=1;arcSize=10;whiteSpace=wrap;html=1;align=center;fillColor=#e3c800;fontColor=#000000;strokeColor=#84840b;gradientColor=#595900;fontStyle=1" parent="1" vertex="1">
          <mxGeometry x="173" y="370" width="100" height="40" as="geometry" />
        </mxCell>
        <mxCell id="GWcpfoeMARC62F03ZhTd-39" value="Id" style="ellipse;whiteSpace=wrap;html=1;align=center;fontStyle=5;fillColor=#a0522d;fontColor=#000000;strokeColor=#6D1F00;gradientColor=#D99857;labelBorderColor=none;" parent="1" vertex="1">
          <mxGeometry x="54" y="426" width="100" height="40" as="geometry" />
        </mxCell>
        <mxCell id="GWcpfoeMARC62F03ZhTd-40" value="Detalle" style="ellipse;whiteSpace=wrap;html=1;align=center;fillColor=#FFAD0B;fontColor=#000000;strokeColor=#7A4900;fontStyle=1;gradientColor=#623104;" parent="1" vertex="1">
          <mxGeometry x="294" y="426" width="100" height="40" as="geometry" />
        </mxCell>
        <mxCell id="GWcpfoeMARC62F03ZhTd-44" style="edgeStyle=none;rounded=0;orthogonalLoop=1;jettySize=auto;html=1;exitX=1;exitY=0.5;exitDx=0;exitDy=0;entryX=0.5;entryY=0;entryDx=0;entryDy=0;" parent="1" source="GWcpfoeMARC62F03ZhTd-46" target="GWcpfoeMARC62F03ZhTd-49" edge="1">
          <mxGeometry relative="1" as="geometry">
            <mxPoint x="733" y="410" as="targetPoint" />
          </mxGeometry>
        </mxCell>
        <mxCell id="GWcpfoeMARC62F03ZhTd-45" style="edgeStyle=none;rounded=0;orthogonalLoop=1;jettySize=auto;html=1;exitX=0;exitY=0.5;exitDx=0;exitDy=0;entryX=0.5;entryY=0;entryDx=0;entryDy=0;" parent="1" source="GWcpfoeMARC62F03ZhTd-46" target="GWcpfoeMARC62F03ZhTd-47" edge="1">
          <mxGeometry relative="1" as="geometry">
            <mxPoint x="546" y="450" as="targetPoint" />
          </mxGeometry>
        </mxCell>
        <mxCell id="GWcpfoeMARC62F03ZhTd-46" value="PeliculaGenero" style="rounded=1;arcSize=10;whiteSpace=wrap;html=1;align=center;fillColor=#e3c800;fontColor=#000000;strokeColor=#84840b;gradientColor=#595900;fontStyle=1" parent="1" vertex="1">
          <mxGeometry x="580" y="370" width="100" height="40" as="geometry" />
        </mxCell>
        <mxCell id="GWcpfoeMARC62F03ZhTd-47" value="IdPelicula" style="ellipse;whiteSpace=wrap;html=1;align=center;fontStyle=5;fillColor=#a0522d;fontColor=#000000;strokeColor=#6D1F00;gradientColor=#D99857;labelBorderColor=none;" parent="1" vertex="1">
          <mxGeometry x="450" y="426" width="100" height="40" as="geometry" />
        </mxCell>
        <mxCell id="GWcpfoeMARC62F03ZhTd-49" value="IdGenero" style="ellipse;whiteSpace=wrap;html=1;align=center;fontStyle=5;fillColor=#a0522d;fontColor=#000000;strokeColor=#6D1F00;gradientColor=#D99857;labelBorderColor=none;" parent="1" vertex="1">
          <mxGeometry x="706" y="426" width="100" height="40" as="geometry" />
        </mxCell>
        <mxCell id="GWcpfoeMARC62F03ZhTd-50" style="edgeStyle=none;rounded=0;orthogonalLoop=1;jettySize=auto;html=1;exitX=1;exitY=0.5;exitDx=0;exitDy=0;entryX=0.5;entryY=0;entryDx=0;entryDy=0;" parent="1" source="GWcpfoeMARC62F03ZhTd-52" target="GWcpfoeMARC62F03ZhTd-54" edge="1">
          <mxGeometry relative="1" as="geometry" />
        </mxCell>
        <mxCell id="GWcpfoeMARC62F03ZhTd-51" style="edgeStyle=none;rounded=0;orthogonalLoop=1;jettySize=auto;html=1;exitX=0;exitY=0.5;exitDx=0;exitDy=0;entryX=0.5;entryY=0;entryDx=0;entryDy=0;" parent="1" source="GWcpfoeMARC62F03ZhTd-52" target="GWcpfoeMARC62F03ZhTd-53" edge="1">
          <mxGeometry relative="1" as="geometry">
            <mxPoint x="123" y="675" as="targetPoint" />
          </mxGeometry>
        </mxCell>
        <mxCell id="GWcpfoeMARC62F03ZhTd-52" value="Actores" style="rounded=1;arcSize=10;whiteSpace=wrap;html=1;align=center;fillColor=#e3c800;fontColor=#000000;strokeColor=#84840b;gradientColor=#595900;fontStyle=1" parent="1" vertex="1">
          <mxGeometry x="173" y="585" width="100" height="40" as="geometry" />
        </mxCell>
        <mxCell id="GWcpfoeMARC62F03ZhTd-53" value="Id" style="ellipse;whiteSpace=wrap;html=1;align=center;fontStyle=5;fillColor=#a0522d;fontColor=#000000;strokeColor=#6D1F00;gradientColor=#D99857;labelBorderColor=none;" parent="1" vertex="1">
          <mxGeometry x="54" y="641" width="100" height="40" as="geometry" />
        </mxCell>
        <mxCell id="GWcpfoeMARC62F03ZhTd-54" value="Nombre" style="ellipse;whiteSpace=wrap;html=1;align=center;fillColor=#FFAD0B;fontColor=#000000;strokeColor=#7A4900;fontStyle=1;gradientColor=#623104;" parent="1" vertex="1">
          <mxGeometry x="294" y="641" width="100" height="40" as="geometry" />
        </mxCell>
        <mxCell id="GWcpfoeMARC62F03ZhTd-55" style="edgeStyle=none;rounded=0;orthogonalLoop=1;jettySize=auto;html=1;exitX=1;exitY=0.5;exitDx=0;exitDy=0;entryX=0.5;entryY=0;entryDx=0;entryDy=0;" parent="1" source="GWcpfoeMARC62F03ZhTd-57" target="GWcpfoeMARC62F03ZhTd-59" edge="1">
          <mxGeometry relative="1" as="geometry">
            <mxPoint x="714" y="670" as="targetPoint" />
          </mxGeometry>
        </mxCell>
        <mxCell id="GWcpfoeMARC62F03ZhTd-56" style="edgeStyle=none;rounded=0;orthogonalLoop=1;jettySize=auto;html=1;exitX=0;exitY=0.5;exitDx=0;exitDy=0;entryX=0.5;entryY=0;entryDx=0;entryDy=0;" parent="1" source="GWcpfoeMARC62F03ZhTd-57" target="GWcpfoeMARC62F03ZhTd-58" edge="1">
          <mxGeometry relative="1" as="geometry">
            <mxPoint x="514" y="665" as="targetPoint" />
          </mxGeometry>
        </mxCell>
        <mxCell id="GWcpfoeMARC62F03ZhTd-57" value="PeliculaActor" style="rounded=1;arcSize=10;whiteSpace=wrap;html=1;align=center;fillColor=#e3c800;fontColor=#000000;strokeColor=#84840b;gradientColor=#595900;fontStyle=1" parent="1" vertex="1">
          <mxGeometry x="578" y="585" width="100" height="40" as="geometry" />
        </mxCell>
        <mxCell id="GWcpfoeMARC62F03ZhTd-58" value="IdPelicula" style="ellipse;whiteSpace=wrap;html=1;align=center;fontStyle=5;fillColor=#a0522d;fontColor=#000000;strokeColor=#6D1F00;gradientColor=#D99857;labelBorderColor=none;" parent="1" vertex="1">
          <mxGeometry x="465" y="641" width="100" height="40" as="geometry" />
        </mxCell>
        <mxCell id="GWcpfoeMARC62F03ZhTd-59" value="IdActor" style="ellipse;whiteSpace=wrap;html=1;align=center;fontStyle=5;fillColor=#a0522d;fontColor=#000000;strokeColor=#6D1F00;gradientColor=#D99857;labelBorderColor=none;" parent="1" vertex="1">
          <mxGeometry x="706" y="641" width="100" height="40" as="geometry" />
        </mxCell>
        <mxCell id="GWcpfoeMARC62F03ZhTd-103" style="edgeStyle=none;rounded=0;orthogonalLoop=1;jettySize=auto;html=1;exitX=1;exitY=1;exitDx=0;exitDy=0;fontSize=12;fillColor=#a0522d;strokeColor=#6D1F00;fontColor=#000000;fontStyle=5;gradientColor=#D99857;labelBorderColor=none;" parent="1" source="GWcpfoeMARC62F03ZhTd-59" target="GWcpfoeMARC62F03ZhTd-59" edge="1">
          <mxGeometry relative="1" as="geometry" />
        </mxCell>
        <mxCell id="TY12RP6krnIhE76KhcJ3-1" value="Trailer" style="ellipse;whiteSpace=wrap;html=1;align=center;fillColor=#FFAD0B;fontColor=#000000;strokeColor=#7A4900;fontStyle=1;gradientColor=#623104;" vertex="1" parent="1">
          <mxGeometry x="314" y="80" width="100" height="40" as="geometry" />
        </mxCell>
        <mxCell id="TY12RP6krnIhE76KhcJ3-3" style="edgeStyle=none;rounded=0;orthogonalLoop=1;jettySize=auto;html=1;exitX=1;exitY=0.5;exitDx=0;exitDy=0;entryX=0.5;entryY=0;entryDx=0;entryDy=0;" edge="1" parent="1" source="TY12RP6krnIhE76KhcJ3-5" target="TY12RP6krnIhE76KhcJ3-7">
          <mxGeometry relative="1" as="geometry" />
        </mxCell>
        <mxCell id="TY12RP6krnIhE76KhcJ3-4" style="edgeStyle=none;rounded=0;orthogonalLoop=1;jettySize=auto;html=1;exitX=0;exitY=0.5;exitDx=0;exitDy=0;entryX=0.5;entryY=0;entryDx=0;entryDy=0;" edge="1" parent="1" source="TY12RP6krnIhE76KhcJ3-5" target="TY12RP6krnIhE76KhcJ3-6">
          <mxGeometry relative="1" as="geometry">
            <mxPoint x="133" y="880" as="targetPoint" />
          </mxGeometry>
        </mxCell>
        <mxCell id="TY12RP6krnIhE76KhcJ3-5" value="Paises" style="rounded=1;arcSize=10;whiteSpace=wrap;html=1;align=center;fillColor=#e3c800;fontColor=#000000;strokeColor=#84840b;gradientColor=#595900;fontStyle=1" vertex="1" parent="1">
          <mxGeometry x="174" y="790" width="100" height="40" as="geometry" />
        </mxCell>
        <mxCell id="TY12RP6krnIhE76KhcJ3-6" value="Id" style="ellipse;whiteSpace=wrap;html=1;align=center;fontStyle=5;fillColor=#a0522d;fontColor=#000000;strokeColor=#6D1F00;gradientColor=#D99857;labelBorderColor=none;" vertex="1" parent="1">
          <mxGeometry x="54" y="846" width="100" height="40" as="geometry" />
        </mxCell>
        <mxCell id="TY12RP6krnIhE76KhcJ3-7" value="Nombre" style="ellipse;whiteSpace=wrap;html=1;align=center;fillColor=#FFAD0B;fontColor=#000000;strokeColor=#7A4900;fontStyle=1;gradientColor=#623104;" vertex="1" parent="1">
          <mxGeometry x="294" y="846" width="100" height="40" as="geometry" />
        </mxCell>
        <mxCell id="TY12RP6krnIhE76KhcJ3-8" style="edgeStyle=none;rounded=0;orthogonalLoop=1;jettySize=auto;html=1;exitX=1;exitY=0.5;exitDx=0;exitDy=0;entryX=0.5;entryY=0;entryDx=0;entryDy=0;" edge="1" parent="1" source="TY12RP6krnIhE76KhcJ3-10" target="TY12RP6krnIhE76KhcJ3-12">
          <mxGeometry relative="1" as="geometry">
            <mxPoint x="724" y="875" as="targetPoint" />
          </mxGeometry>
        </mxCell>
        <mxCell id="TY12RP6krnIhE76KhcJ3-9" style="edgeStyle=none;rounded=0;orthogonalLoop=1;jettySize=auto;html=1;exitX=0;exitY=0.5;exitDx=0;exitDy=0;entryX=0.5;entryY=0;entryDx=0;entryDy=0;" edge="1" parent="1" source="TY12RP6krnIhE76KhcJ3-10" target="TY12RP6krnIhE76KhcJ3-11">
          <mxGeometry relative="1" as="geometry">
            <mxPoint x="524" y="870" as="targetPoint" />
          </mxGeometry>
        </mxCell>
        <mxCell id="TY12RP6krnIhE76KhcJ3-10" value="PeliculaPais&lt;br&gt;" style="rounded=1;arcSize=10;whiteSpace=wrap;html=1;align=center;fillColor=#e3c800;fontColor=#000000;strokeColor=#84840b;gradientColor=#595900;fontStyle=1" vertex="1" parent="1">
          <mxGeometry x="580" y="790" width="100" height="40" as="geometry" />
        </mxCell>
        <mxCell id="TY12RP6krnIhE76KhcJ3-11" value="IdPelicula" style="ellipse;whiteSpace=wrap;html=1;align=center;fontStyle=5;fillColor=#a0522d;fontColor=#000000;strokeColor=#6D1F00;gradientColor=#D99857;labelBorderColor=none;" vertex="1" parent="1">
          <mxGeometry x="465" y="846" width="100" height="40" as="geometry" />
        </mxCell>
        <mxCell id="TY12RP6krnIhE76KhcJ3-12" value="idPais" style="ellipse;whiteSpace=wrap;html=1;align=center;fontStyle=5;fillColor=#a0522d;fontColor=#000000;strokeColor=#6D1F00;gradientColor=#D99857;labelBorderColor=none;" vertex="1" parent="1">
          <mxGeometry x="706" y="846" width="100" height="40" as="geometry" />
        </mxCell>
        <mxCell id="TY12RP6krnIhE76KhcJ3-13" style="edgeStyle=none;rounded=0;orthogonalLoop=1;jettySize=auto;html=1;exitX=1;exitY=1;exitDx=0;exitDy=0;fontSize=12;fillColor=#a0522d;strokeColor=#6D1F00;fontColor=#000000;fontStyle=5;gradientColor=#D99857;labelBorderColor=none;" edge="1" parent="1" source="TY12RP6krnIhE76KhcJ3-12" target="TY12RP6krnIhE76KhcJ3-12">
          <mxGeometry relative="1" as="geometry" />
        </mxCell>
      </root>
    </mxGraphModel>
  </diagram>
  <diagram id="J34_6GCNr4jpS4fEOQa-" name="PÃ¡gina-2">
    <mxGraphModel dx="898" dy="551" grid="1" gridSize="10" guides="1" tooltips="1" connect="1" arrows="1" fold="1" page="1" pageScale="1" pageWidth="1169" pageHeight="827" math="0" shadow="0">
      <root>
        <mxCell id="0" />
        <mxCell id="1" parent="0" />
        <mxCell id="-kgPWI9OPZBE5hv4c5AD-1" value="Peliculas" style="rounded=1;arcSize=10;whiteSpace=wrap;html=1;align=center;fillColor=#e3c800;fontColor=#000000;strokeColor=#B09500;gradientColor=#816108;fontStyle=1;" parent="1" vertex="1">
          <mxGeometry x="698" y="300" width="100" height="40" as="geometry" />
        </mxCell>
        <mxCell id="aZYFBPQy1H_vzNSLw2dj-1" value="Categorias" style="rounded=1;arcSize=10;whiteSpace=wrap;html=1;align=center;fillColor=#e3c800;fontColor=#000000;strokeColor=#0a0900;gradientColor=#816108;fontStyle=1;" parent="1" vertex="1">
          <mxGeometry x="722" y="650" width="100" height="40" as="geometry" />
        </mxCell>
        <mxCell id="aZYFBPQy1H_vzNSLw2dj-2" value="Generos" style="rounded=1;arcSize=10;whiteSpace=wrap;html=1;align=center;fillColor=#e3c800;fontColor=#000000;strokeColor=#B09500;gradientColor=#816108;fontStyle=1;" parent="1" vertex="1">
          <mxGeometry x="308" y="495" width="100" height="40" as="geometry" />
        </mxCell>
        <mxCell id="aZYFBPQy1H_vzNSLw2dj-3" value="PeliculaGenero" style="rounded=1;arcSize=10;whiteSpace=wrap;html=1;align=center;fillColor=#e3c800;fontColor=#000000;strokeColor=#B09500;gradientColor=#816108;fontStyle=1;" parent="1" vertex="1">
          <mxGeometry x="308" y="374" width="100" height="40" as="geometry" />
        </mxCell>
        <mxCell id="aZYFBPQy1H_vzNSLw2dj-4" value="Actores" style="rounded=1;arcSize=10;whiteSpace=wrap;html=1;align=center;fillColor=#e3c800;fontColor=#000000;strokeColor=#B09500;gradientColor=#816108;fontStyle=1;" parent="1" vertex="1">
          <mxGeometry x="560" y="495" width="100" height="40" as="geometry" />
        </mxCell>
        <mxCell id="aZYFBPQy1H_vzNSLw2dj-5" value="PeliculaActor" style="rounded=1;arcSize=10;whiteSpace=wrap;html=1;align=center;fillColor=#e3c800;fontColor=#000000;strokeColor=#B09500;gradientColor=#816108;fontStyle=1;" parent="1" vertex="1">
          <mxGeometry x="560" y="385" width="100" height="40" as="geometry" />
        </mxCell>
        <mxCell id="aZYFBPQy1H_vzNSLw2dj-6" value="Paises" style="rounded=1;arcSize=10;whiteSpace=wrap;html=1;align=center;fillColor=#e3c800;fontColor=#000000;strokeColor=#B09500;gradientColor=#816108;fontStyle=1;" parent="1" vertex="1">
          <mxGeometry x="832" y="495" width="100" height="40" as="geometry" />
        </mxCell>
        <mxCell id="aZYFBPQy1H_vzNSLw2dj-7" value="PeliculaPais" style="rounded=1;arcSize=10;whiteSpace=wrap;html=1;align=center;fillColor=#e3c800;fontColor=#000000;strokeColor=#B09500;gradientColor=#816108;fontStyle=1;" parent="1" vertex="1">
          <mxGeometry x="832" y="385" width="100" height="40" as="geometry" />
        </mxCell>
        <mxCell id="aZYFBPQy1H_vzNSLw2dj-17" value="" style="endArrow=ERmany;html=1;rounded=0;edgeStyle=orthogonalEdgeStyle;exitX=0;exitY=0.25;exitDx=0;exitDy=0;entryX=0.5;entryY=0;entryDx=0;entryDy=0;startArrow=classicThin;startFill=1;endFill=0;" parent="1" source="-kgPWI9OPZBE5hv4c5AD-1" target="aZYFBPQy1H_vzNSLw2dj-3" edge="1">
          <mxGeometry width="50" height="50" relative="1" as="geometry">
            <mxPoint x="728" y="520" as="sourcePoint" />
            <mxPoint x="778" y="470" as="targetPoint" />
          </mxGeometry>
        </mxCell>
        <mxCell id="aZYFBPQy1H_vzNSLw2dj-18" value="" style="endArrow=classicThin;html=1;rounded=0;edgeStyle=orthogonalEdgeStyle;entryX=0.5;entryY=0;entryDx=0;entryDy=0;exitX=0.5;exitY=1;exitDx=0;exitDy=0;startArrow=ERmany;startFill=0;endFill=1;" parent="1" source="aZYFBPQy1H_vzNSLw2dj-3" target="aZYFBPQy1H_vzNSLw2dj-2" edge="1">
          <mxGeometry width="50" height="50" relative="1" as="geometry">
            <mxPoint x="778" y="495" as="sourcePoint" />
            <mxPoint x="728" y="545" as="targetPoint" />
            <Array as="points" />
          </mxGeometry>
        </mxCell>
        <mxCell id="aZYFBPQy1H_vzNSLw2dj-21" value="" style="endArrow=ERmany;html=1;rounded=0;edgeStyle=orthogonalEdgeStyle;exitX=0;exitY=0.75;exitDx=0;exitDy=0;entryX=0.5;entryY=0;entryDx=0;entryDy=0;startArrow=classicThin;startFill=1;endFill=0;" parent="1" source="-kgPWI9OPZBE5hv4c5AD-1" target="aZYFBPQy1H_vzNSLw2dj-5" edge="1">
          <mxGeometry width="50" height="50" relative="1" as="geometry">
            <mxPoint x="672.5" y="320" as="sourcePoint" />
            <mxPoint x="623" y="355" as="targetPoint" />
          </mxGeometry>
        </mxCell>
        <mxCell id="aZYFBPQy1H_vzNSLw2dj-22" value="" style="endArrow=ERmany;html=1;rounded=0;edgeStyle=orthogonalEdgeStyle;startArrow=classicThin;startFill=1;endFill=0;entryX=0.5;entryY=0;entryDx=0;entryDy=0;exitX=1;exitY=0.75;exitDx=0;exitDy=0;" parent="1" source="-kgPWI9OPZBE5hv4c5AD-1" target="aZYFBPQy1H_vzNSLw2dj-7" edge="1">
          <mxGeometry width="50" height="50" relative="1" as="geometry">
            <mxPoint x="828" y="320" as="sourcePoint" />
            <mxPoint x="848" y="350" as="targetPoint" />
          </mxGeometry>
        </mxCell>
        <mxCell id="aZYFBPQy1H_vzNSLw2dj-23" value="" style="endArrow=classicThin;html=1;rounded=0;startArrow=ERmany;startFill=0;endFill=1;entryX=0.5;entryY=0;entryDx=0;entryDy=0;exitX=0.5;exitY=1;exitDx=0;exitDy=0;" parent="1" source="aZYFBPQy1H_vzNSLw2dj-5" target="aZYFBPQy1H_vzNSLw2dj-4" edge="1">
          <mxGeometry width="50" height="50" relative="1" as="geometry">
            <mxPoint x="650" y="450" as="sourcePoint" />
            <mxPoint x="650" y="470" as="targetPoint" />
          </mxGeometry>
        </mxCell>
        <mxCell id="aZYFBPQy1H_vzNSLw2dj-24" value="" style="endArrow=classicThin;html=1;rounded=0;edgeStyle=orthogonalEdgeStyle;exitX=0.5;exitY=1;exitDx=0;exitDy=0;startArrow=ERmany;startFill=0;endFill=1;" parent="1" source="aZYFBPQy1H_vzNSLw2dj-7" target="aZYFBPQy1H_vzNSLw2dj-6" edge="1">
          <mxGeometry width="50" height="50" relative="1" as="geometry">
            <mxPoint x="502" y="440" as="sourcePoint" />
            <mxPoint x="502" y="510" as="targetPoint" />
          </mxGeometry>
        </mxCell>
        <mxCell id="n4i6tPvSmjae_W8OZ_Pn-3" value="" style="endArrow=ERmany;startArrow=classic;html=1;rounded=0;edgeStyle=orthogonalEdgeStyle;entryX=0.75;entryY=1;entryDx=0;entryDy=0;exitX=0.5;exitY=0;exitDx=0;exitDy=0;endFill=0;" parent="1" source="aZYFBPQy1H_vzNSLw2dj-1" target="-kgPWI9OPZBE5hv4c5AD-1" edge="1">
          <mxGeometry width="50" height="50" relative="1" as="geometry">
            <mxPoint x="728" y="490" as="sourcePoint" />
            <mxPoint x="778" y="440" as="targetPoint" />
          </mxGeometry>
        </mxCell>
        <mxCell id="GC0K6LhiR5WFWuYoHpxz-11" value="" style="edgeStyle=orthogonalEdgeStyle;fontSize=12;html=1;endArrow=ERmany;startArrow=ERmany;rounded=0;entryX=1;entryY=0.5;entryDx=0;entryDy=0;exitX=1;exitY=0.5;exitDx=0;exitDy=0;" parent="1" source="aZYFBPQy1H_vzNSLw2dj-6" target="-kgPWI9OPZBE5hv4c5AD-1" edge="1">
          <mxGeometry width="100" height="100" relative="1" as="geometry">
            <mxPoint x="318" y="525" as="sourcePoint" />
            <mxPoint x="228" y="250" as="targetPoint" />
            <Array as="points">
              <mxPoint x="1030" y="515" />
              <mxPoint x="1030" y="320" />
            </Array>
          </mxGeometry>
        </mxCell>
        <mxCell id="GC0K6LhiR5WFWuYoHpxz-12" value="Se origina en" style="shape=rhombus;perimeter=rhombusPerimeter;whiteSpace=wrap;html=1;align=center;fillColor=#c9e34a;fontColor=#000000;gradientColor=#449721;fontStyle=1;" parent="1" vertex="1">
          <mxGeometry x="970" y="375" width="120" height="60" as="geometry" />
        </mxCell>
        <mxCell id="GC0K6LhiR5WFWuYoHpxz-14" value="" style="edgeStyle=orthogonalEdgeStyle;fontSize=12;html=1;endArrow=ERmany;startArrow=none;rounded=0;entryX=0;entryY=0.5;entryDx=0;entryDy=0;startFill=0;exitX=0.5;exitY=0;exitDx=0;exitDy=0;" parent="1" source="GC0K6LhiR5WFWuYoHpxz-15" edge="1">
          <mxGeometry width="100" height="100" relative="1" as="geometry">
            <mxPoint x="550" y="410" as="sourcePoint" />
            <mxPoint x="698" y="320" as="targetPoint" />
            <Array as="points">
              <mxPoint x="505" y="320" />
            </Array>
          </mxGeometry>
        </mxCell>
        <mxCell id="a6U2KwOHbzb6vlWTevUd-1" value="" style="edgeStyle=orthogonalEdgeStyle;fontSize=12;html=1;endArrow=ERmany;startArrow=ERmany;rounded=0;entryX=0.25;entryY=1;entryDx=0;entryDy=0;exitX=0.5;exitY=1;exitDx=0;exitDy=0;" parent="1" source="aZYFBPQy1H_vzNSLw2dj-2" target="-kgPWI9OPZBE5hv4c5AD-1" edge="1">
          <mxGeometry width="100" height="100" relative="1" as="geometry">
            <mxPoint x="380" y="440" as="sourcePoint" />
            <mxPoint x="480" y="340" as="targetPoint" />
            <Array as="points">
              <mxPoint x="358" y="570" />
              <mxPoint x="723" y="570" />
            </Array>
          </mxGeometry>
        </mxCell>
        <mxCell id="a6U2KwOHbzb6vlWTevUd-2" value="Tiene" style="shape=rhombus;perimeter=rhombusPerimeter;whiteSpace=wrap;html=1;align=center;fillColor=#c9e34a;fontColor=#000000;gradientColor=#449721;fontStyle=1;" parent="1" vertex="1">
          <mxGeometry x="465" y="540" width="120" height="60" as="geometry" />
        </mxCell>
        <mxCell id="a6U2KwOHbzb6vlWTevUd-3" value="Tiene" style="shape=rhombus;perimeter=rhombusPerimeter;whiteSpace=wrap;html=1;align=center;fillColor=#c9e34a;fontColor=#000000;gradientColor=#449721;fontStyle=1;" parent="1" vertex="1">
          <mxGeometry x="712" y="560" width="120" height="60" as="geometry" />
        </mxCell>
        <mxCell id="a6U2KwOHbzb6vlWTevUd-4" value="" style="edgeStyle=orthogonalEdgeStyle;fontSize=12;html=1;endArrow=none;startArrow=ERmany;rounded=0;entryX=0.5;entryY=1;entryDx=0;entryDy=0;exitX=0;exitY=0.5;exitDx=0;exitDy=0;startFill=0;endFill=0;" parent="1" target="GC0K6LhiR5WFWuYoHpxz-15" edge="1" source="aZYFBPQy1H_vzNSLw2dj-4">
          <mxGeometry width="100" height="100" relative="1" as="geometry">
            <mxPoint x="554.5" y="515" as="sourcePoint" />
            <mxPoint x="654.5" y="320" as="targetPoint" />
            <Array as="points">
              <mxPoint x="505" y="515" />
            </Array>
          </mxGeometry>
        </mxCell>
        <mxCell id="GC0K6LhiR5WFWuYoHpxz-15" value="Trabajan" style="shape=rhombus;perimeter=rhombusPerimeter;whiteSpace=wrap;html=1;align=center;fillColor=#c9e34a;fontColor=#000000;gradientColor=#449721;fontStyle=1;" parent="1" vertex="1">
          <mxGeometry x="444.5" y="410" width="120" height="60" as="geometry" />
        </mxCell>
      </root>
    </mxGraphModel>
  </diagram>
</mxfile>
